<svg width="800" height="500" viewBox="0 0 800 500" xmlns="http://www.w3.org/2000/svg" font-family="sans-serif">
    <rect x="0" y="0" width="800" height="500" fill="#F8F8F8"/>
    
    <line x1="50" y1="400" x2="750" y2="400" stroke="#333" stroke-width="2"/>
    <line x1="50" y1="400" x2="50" y2="50" stroke="#333" stroke-width="2"/>
        
    <polygon points="750,400 743,396 743,404" fill="#333"/>
    <polygon points="50,50 46,57 54,57" fill="#333"/>
    
    <text x="40" y="225" font-size="18" fill="#333" text-anchor="middle" transform="rotate(-90, 40, 225)">選択肢</text>
    <text x="400" y="440" font-size="18" fill="#333" text-anchor="middle">時間経過</text>
    
    <text x="250" y="80" font-size="20" fill="#333" text-anchor="middle" font-weight="bold">正しい問題を見つける</text>
    <text x="550" y="80" font-size="20" fill="#333" text-anchor="middle" font-weight="bold">正しい解決を見つける</text>
    
    <polygon points="100,250 250,100 400,250 250,400" fill="none" stroke="#333" stroke-width="1"/>
        
    <polygon points="100,250 250,100 250,400" fill="#FFB5B5"/>
    <text x="175" y="240" font-size="20" fill="#333" text-anchor="middle" font-weight="bold">探索</text>
    <text x="175" y="265" font-size="16" fill="#333" text-anchor="middle">(Discover)</text>
    <text x="175" y="285" font-size="14" fill="#333" text-anchor="middle">問題の洗い出し</text>
    
    <polygon points="250,100 400,250 250,400" fill="#FFCC99"/>
    <text x="325" y="240" font-size="20" fill="#333" text-anchor="middle" font-weight="bold">定義</text>
    <text x="325" y="265" font-size="16" fill="#333" text-anchor="middle">(Define)</text>
    <text x="325" y="285" font-size="14" fill="#333" text-anchor="middle">問題の絞り込み</text>
    
    <line x1="150" y1="190" x2="230" y2="110" stroke="#333" stroke-width="2"/>
    <polygon points="230,110 223,112 226,118" fill="#333"/>
    <text x="190" y="140" font-size="16" fill="#333" text-anchor="middle">発散</text>
    
    <line x1="270" y1="110" x2="350" y2="190" stroke="#333" stroke-width="2"/>
    <polygon points="350,190 341,189 349,181" fill="#333"/>
    <text x="310" y="140" font-size="16" fill="#333" text-anchor="middle">収束</text>
    
    <polygon points="400,250 550,100 700,250 550,400" fill="none" stroke="#333" stroke-width="1"/>
        
    <polygon points="400,250 550,100 550,400" fill="#B3D9FF"/>
    <text x="475" y="240" font-size="20" fill="#333" text-anchor="middle" font-weight="bold">展開</text>
    <text x="475" y="265" font-size="16" fill="#333" text-anchor="middle">(Develop)</text>
    <text x="475" y="285" font-size="14" fill="#333" text-anchor="middle">解決策の洗い出し</text>
    
    <polygon points="550,100 700,250 550,400" fill="#C8B6FF"/>
    <text x="625" y="240" font-size="20" fill="#333" text-anchor="middle" font-weight="bold">提供</text>
    <text x="625" y="265" font-size="16" fill="#333" text-anchor="middle">(Deliver)</text>
    <text x="625" y="285" font-size="14" fill="#333" text-anchor="middle">解決策の絞り込み</text>
    
    <line x1="450" y1="190" x2="530" y2="110" stroke="#333" stroke-width="2"/>
    <polygon points="530,110 523,112 526,118" fill="#333"/>
    <text x="490" y="140" font-size="16" fill="#333" text-anchor="middle">発散</text>
    
    <line x1="570" y1="110" x2="650" y2="190" stroke="#333" stroke-width="2"/>
    <polygon points="650,190 641,189 649,181" fill="#333"/>
    <text x="610" y="140" font-size="16" fill="#333" text-anchor="middle">収束</text>
    
    <line x1="250" y1="100" x2="250" y2="400" stroke="white" stroke-width="2"/>
    <line x1="550" y1="100" x2="550" y2="400" stroke="white" stroke-width="2"/>
</svg>